<mxfile host="app.diagrams.net" modified="2023-12-11T17:50:49.987Z" agent="Mozilla/5.0 (Windows NT 10.0; Win64; x64) AppleWebKit/537.36 (KHTML, like Gecko) Chrome/120.0.0.0 Safari/537.36 Edg/120.0.0.0" etag="1Oi6VMRHbz3wAaHKKg8r" version="22.1.7" type="github">
  <diagram id="N1p5Ko9E5xIgINEbjYPs" name="Page-1">
    <mxGraphModel dx="3738" dy="1841" grid="0" gridSize="10" guides="0" tooltips="1" connect="1" arrows="1" fold="1" page="0" pageScale="1" pageWidth="827" pageHeight="1169" math="0" shadow="0">
      <root>
        <mxCell id="0" />
        <mxCell id="1" parent="0" />
        <mxCell id="rxSmD3kd1m7WjX13Z17K-10" value="module System &amp;amp;&lt;br&gt;modulen van&amp;nbsp;Marketplace" style="rounded=0;whiteSpace=wrap;html=1;fillColor=#fff2cc;strokeColor=#d6b656;" vertex="1" parent="1">
          <mxGeometry x="-1119.5" y="373" width="673.5" height="40" as="geometry" />
        </mxCell>
        <mxCell id="rxSmD3kd1m7WjX13Z17K-11" value="module&lt;br&gt;MasterData" style="rounded=0;whiteSpace=wrap;html=1;fillColor=#fff2cc;strokeColor=#d6b656;" vertex="1" parent="1">
          <mxGeometry x="-746" y="281" width="196" height="40" as="geometry" />
        </mxCell>
        <mxCell id="rxSmD3kd1m7WjX13Z17K-37" style="edgeStyle=orthogonalEdgeStyle;rounded=0;orthogonalLoop=1;jettySize=auto;html=1;entryX=0.5;entryY=0;entryDx=0;entryDy=0;" edge="1" parent="1" target="rxSmD3kd1m7WjX13Z17K-11">
          <mxGeometry relative="1" as="geometry">
            <mxPoint x="-648" y="-70" as="sourcePoint" />
            <Array as="points">
              <mxPoint x="-648" y="-70" />
            </Array>
          </mxGeometry>
        </mxCell>
        <mxCell id="rxSmD3kd1m7WjX13Z17K-44" style="edgeStyle=orthogonalEdgeStyle;rounded=0;orthogonalLoop=1;jettySize=auto;html=1;exitX=0.25;exitY=1;exitDx=0;exitDy=0;entryX=0.5;entryY=0;entryDx=0;entryDy=0;" edge="1" parent="1" source="rxSmD3kd1m7WjX13Z17K-13" target="rxSmD3kd1m7WjX13Z17K-32">
          <mxGeometry relative="1" as="geometry" />
        </mxCell>
        <mxCell id="rxSmD3kd1m7WjX13Z17K-45" style="edgeStyle=orthogonalEdgeStyle;rounded=0;orthogonalLoop=1;jettySize=auto;html=1;exitX=0.106;exitY=1.07;exitDx=0;exitDy=0;entryX=0;entryY=0;entryDx=0;entryDy=0;exitPerimeter=0;" edge="1" parent="1" source="rxSmD3kd1m7WjX13Z17K-13" target="rxSmD3kd1m7WjX13Z17K-18">
          <mxGeometry relative="1" as="geometry" />
        </mxCell>
        <mxCell id="rxSmD3kd1m7WjX13Z17K-13" value="module&lt;br&gt;NicoPortaal" style="rounded=0;whiteSpace=wrap;html=1;fillColor=#fff2cc;strokeColor=#d6b656;" vertex="1" parent="1">
          <mxGeometry x="-1108" y="-112" width="663" height="40" as="geometry" />
        </mxCell>
        <mxCell id="rxSmD3kd1m7WjX13Z17K-14" style="edgeStyle=orthogonalEdgeStyle;rounded=0;orthogonalLoop=1;jettySize=auto;html=1;exitX=0;exitY=1;exitDx=0;exitDy=0;entryX=0.75;entryY=0;entryDx=0;entryDy=0;" edge="1" parent="1" source="rxSmD3kd1m7WjX13Z17K-15" target="rxSmD3kd1m7WjX13Z17K-18">
          <mxGeometry relative="1" as="geometry">
            <mxPoint x="-698" y="240" as="sourcePoint" />
            <mxPoint x="-924" y="253" as="targetPoint" />
          </mxGeometry>
        </mxCell>
        <mxCell id="rxSmD3kd1m7WjX13Z17K-15" value="module&lt;br&gt;ConsumingFlowable" style="rounded=0;whiteSpace=wrap;html=1;fillColor=#fff2cc;strokeColor=#d6b656;" vertex="1" parent="1">
          <mxGeometry x="-867" y="83" width="160" height="40" as="geometry" />
        </mxCell>
        <mxCell id="rxSmD3kd1m7WjX13Z17K-16" value="module Tools" style="rounded=0;whiteSpace=wrap;html=1;fillColor=#fff2cc;strokeColor=#d6b656;" vertex="1" parent="1">
          <mxGeometry x="-821" y="192" width="100" height="40" as="geometry" />
        </mxCell>
        <mxCell id="rxSmD3kd1m7WjX13Z17K-33" style="edgeStyle=orthogonalEdgeStyle;rounded=0;orthogonalLoop=1;jettySize=auto;html=1;exitX=0.5;exitY=1;exitDx=0;exitDy=0;" edge="1" parent="1" source="rxSmD3kd1m7WjX13Z17K-18">
          <mxGeometry relative="1" as="geometry">
            <mxPoint x="-897" y="370.7999267578125" as="targetPoint" />
          </mxGeometry>
        </mxCell>
        <mxCell id="rxSmD3kd1m7WjX13Z17K-18" value="module&lt;br&gt;ConsumingFlowableHistory" style="rounded=0;whiteSpace=wrap;html=1;fillColor=#fff2cc;strokeColor=#d6b656;" vertex="1" parent="1">
          <mxGeometry x="-1038" y="279" width="160" height="40" as="geometry" />
        </mxCell>
        <mxCell id="rxSmD3kd1m7WjX13Z17K-27" style="edgeStyle=orthogonalEdgeStyle;rounded=0;orthogonalLoop=1;jettySize=auto;html=1;exitX=0.5;exitY=1;exitDx=0;exitDy=0;entryX=0.25;entryY=0;entryDx=0;entryDy=0;" edge="1" parent="1" source="rxSmD3kd1m7WjX13Z17K-16" target="rxSmD3kd1m7WjX13Z17K-11">
          <mxGeometry relative="1" as="geometry" />
        </mxCell>
        <mxCell id="rxSmD3kd1m7WjX13Z17K-35" style="edgeStyle=orthogonalEdgeStyle;rounded=0;orthogonalLoop=1;jettySize=auto;html=1;exitX=0.5;exitY=1;exitDx=0;exitDy=0;entryX=0;entryY=0.75;entryDx=0;entryDy=0;" edge="1" parent="1" source="rxSmD3kd1m7WjX13Z17K-32" target="rxSmD3kd1m7WjX13Z17K-15">
          <mxGeometry relative="1" as="geometry" />
        </mxCell>
        <mxCell id="rxSmD3kd1m7WjX13Z17K-32" value="module&lt;br&gt;DeveloperToolsNicoPortaal" style="rounded=0;whiteSpace=wrap;html=1;fillColor=#fff2cc;strokeColor=#d6b656;" vertex="1" parent="1">
          <mxGeometry x="-1030" y="-8" width="176" height="39" as="geometry" />
        </mxCell>
        <mxCell id="rxSmD3kd1m7WjX13Z17K-34" style="edgeStyle=orthogonalEdgeStyle;rounded=0;orthogonalLoop=1;jettySize=auto;html=1;exitX=0.5;exitY=1;exitDx=0;exitDy=0;entryX=0.524;entryY=0.065;entryDx=0;entryDy=0;entryPerimeter=0;" edge="1" parent="1" source="rxSmD3kd1m7WjX13Z17K-16" target="rxSmD3kd1m7WjX13Z17K-10">
          <mxGeometry relative="1" as="geometry" />
        </mxCell>
        <mxCell id="rxSmD3kd1m7WjX13Z17K-38" style="edgeStyle=orthogonalEdgeStyle;rounded=0;orthogonalLoop=1;jettySize=auto;html=1;exitX=0.5;exitY=1;exitDx=0;exitDy=0;entryX=0.334;entryY=0.07;entryDx=0;entryDy=0;entryPerimeter=0;" edge="1" parent="1" source="rxSmD3kd1m7WjX13Z17K-15" target="rxSmD3kd1m7WjX13Z17K-16">
          <mxGeometry relative="1" as="geometry" />
        </mxCell>
        <mxCell id="rxSmD3kd1m7WjX13Z17K-39" style="edgeStyle=orthogonalEdgeStyle;rounded=0;orthogonalLoop=1;jettySize=auto;html=1;exitX=0.75;exitY=1;exitDx=0;exitDy=0;entryX=0.371;entryY=0.025;entryDx=0;entryDy=0;entryPerimeter=0;" edge="1" parent="1" source="rxSmD3kd1m7WjX13Z17K-15" target="rxSmD3kd1m7WjX13Z17K-11">
          <mxGeometry relative="1" as="geometry">
            <Array as="points">
              <mxPoint x="-747" y="163" />
              <mxPoint x="-673" y="163" />
            </Array>
          </mxGeometry>
        </mxCell>
        <mxCell id="rxSmD3kd1m7WjX13Z17K-40" style="edgeStyle=orthogonalEdgeStyle;rounded=0;orthogonalLoop=1;jettySize=auto;html=1;exitX=0.25;exitY=1;exitDx=0;exitDy=0;entryX=0.439;entryY=0.005;entryDx=0;entryDy=0;entryPerimeter=0;" edge="1" parent="1" source="rxSmD3kd1m7WjX13Z17K-15" target="rxSmD3kd1m7WjX13Z17K-10">
          <mxGeometry relative="1" as="geometry" />
        </mxCell>
        <mxCell id="rxSmD3kd1m7WjX13Z17K-41" style="edgeStyle=orthogonalEdgeStyle;rounded=0;orthogonalLoop=1;jettySize=auto;html=1;exitX=0.486;exitY=0.99;exitDx=0;exitDy=0;entryX=0.5;entryY=0;entryDx=0;entryDy=0;exitPerimeter=0;" edge="1" parent="1" source="rxSmD3kd1m7WjX13Z17K-13" target="rxSmD3kd1m7WjX13Z17K-15">
          <mxGeometry relative="1" as="geometry" />
        </mxCell>
        <mxCell id="rxSmD3kd1m7WjX13Z17K-42" style="edgeStyle=orthogonalEdgeStyle;rounded=0;orthogonalLoop=1;jettySize=auto;html=1;exitX=0.75;exitY=1;exitDx=0;exitDy=0;entryX=0.894;entryY=-0.015;entryDx=0;entryDy=0;entryPerimeter=0;" edge="1" parent="1" source="rxSmD3kd1m7WjX13Z17K-13" target="rxSmD3kd1m7WjX13Z17K-10">
          <mxGeometry relative="1" as="geometry" />
        </mxCell>
        <mxCell id="rxSmD3kd1m7WjX13Z17K-49" style="edgeStyle=orthogonalEdgeStyle;rounded=0;orthogonalLoop=1;jettySize=auto;html=1;exitX=0.5;exitY=1;exitDx=0;exitDy=0;entryX=0.699;entryY=0.005;entryDx=0;entryDy=0;entryPerimeter=0;" edge="1" parent="1" source="rxSmD3kd1m7WjX13Z17K-11" target="rxSmD3kd1m7WjX13Z17K-10">
          <mxGeometry relative="1" as="geometry" />
        </mxCell>
      </root>
    </mxGraphModel>
  </diagram>
</mxfile>
